<svg width="97" height="96" viewBox="0 0 97 96" fill="#ffffff" xmlns="http://www.w3.org/2000/svg">
<g clip-path="url(#clip0_2002_452)">
<path d="M62.5 56H59.34L58.22 54.92C62.14 50.36 64.5 44.44 64.5 38C64.5 23.64 52.86 12 38.5 12C24.14 12 12.5 23.64 12.5 38C12.5 52.36 24.14 64 38.5 64C44.94 64 50.86 61.64 55.42 57.72L56.5 58.84V62L76.5 81.96L82.46 76L62.5 56ZM38.5 56C28.54 56 20.5 47.96 20.5 38C20.5 28.04 28.54 20 38.5 20C48.46 20 56.5 28.04 56.5 38C56.5 47.96 48.46 56 38.5 56Z" fill="white"/>
</g>
<defs>
<clipPath id="clip0_2002_452">
<rect width="96" height="96" fill="white" transform="translate(0.5)"/>
</clipPath>
</defs>
</svg>
